<svg width="250" height="236" viewBox="0 0 250 236" fill="none" xmlns="http://www.w3.org/2000/svg">
<mask id="mask0_23_123" style="mask-type:alpha" maskUnits="userSpaceOnUse" x="0" y="0" width="250" height="236">
<path d="M42.9151 39.806C55.4236 6.58347 80.0052 0.52084 93.7245 0.52955C133.358 0.538261 148.663 13.491 174.124 42.6283C198 69.9536 215.038 65.8335 228.749 76.3212C251.1 93.4289 263.801 152.487 220.5 188.602C159.116 239.812 119.682 242.922 66.6343 226.389C30.8595 215.239 0.87734 184.769 0.154353 151.033C-1.23936 85.8506 29.3874 75.7375 42.9151 39.806Z" fill="#FFF3F3"/>
</mask>
<g mask="url(#mask0_23_123)">
<path d="M77.4877 53.6647H156.624C165.474 53.6647 172.652 60.8423 172.652 69.6923V235.814C172.652 244.664 165.474 251.841 156.624 251.841H77.4877C68.6376 251.841 61.46 244.664 61.46 235.814V69.6836C61.46 60.8336 68.6376 53.6647 77.4877 53.6647Z" fill="black"/>
<path d="M79.4476 60.8597H154.656C160.614 60.8597 165.448 65.6941 165.448 71.6522V233.845C165.448 239.803 160.614 244.638 154.656 244.638H79.4476C73.4895 244.638 68.6551 239.803 68.6551 233.845V71.6522C68.6551 65.6854 73.4895 60.8597 79.4476 60.8597Z" fill="#32B768"/>
<path d="M81.4076 102.532H152.696C155.405 102.532 157.6 104.727 157.6 107.436V149.291C157.6 152 155.405 154.195 152.696 154.195H81.4076C78.6986 154.195 76.5035 152 76.5035 149.291V107.436C76.5035 104.727 78.6986 102.532 81.4076 102.532Z" fill="white"/>
<path d="M81.4076 161.39H152.696C155.405 161.39 157.6 163.585 157.6 166.294V182.644C157.6 185.353 155.405 187.548 152.696 187.548H81.4076C78.6986 187.548 76.5035 185.353 76.5035 182.644V166.294C76.5035 163.585 78.6986 161.39 81.4076 161.39Z" fill="white"/>
<path d="M81.4076 194.743H152.696C155.405 194.743 157.6 196.938 157.6 199.647V215.997C157.6 218.706 155.405 220.901 152.696 220.901H81.4076C78.6986 220.901 76.5035 218.706 76.5035 215.997V199.647C76.5035 196.938 78.6986 194.743 81.4076 194.743Z" fill="white"/>
<mask id="mask1_23_123" style="mask-type:alpha" maskUnits="userSpaceOnUse" x="68" y="60" width="98" height="185">
<path d="M79.4476 60.8597H154.656C160.614 60.8597 165.448 65.6941 165.448 71.6522V233.845C165.448 239.803 160.614 244.638 154.656 244.638H79.4476C73.4895 244.638 68.6551 239.803 68.6551 233.845V71.6522C68.6551 65.6854 73.4895 60.8597 79.4476 60.8597Z" fill="white"/>
</mask>
<g mask="url(#mask1_23_123)">
<path d="M81.4075 228.096H152.696C155.405 228.096 157.6 230.291 157.6 233V249.35C157.6 252.059 155.405 254.254 152.696 254.254H81.4075C78.6985 254.254 76.5034 252.059 76.5034 249.35V233C76.5034 230.3 78.6985 228.096 81.4075 228.096Z" fill="#32B768"/>
</g>
<path d="M144.011 107.819H92.4526C91.9909 110.632 92.4526 118.646 92.4526 118.646C92.4526 123.15 103.994 126.799 118.236 126.799C132.478 126.799 144.02 123.15 144.02 118.646C144.359 112.261 144.011 107.819 144.011 107.819Z" fill="#EDB82C"/>
<path d="M143.367 106.512C145.814 106.382 147.809 108.96 146.99 110.528C146.163 112.096 143.114 113.272 142.112 113.568C139.821 114.247 141.476 117.767 137.165 116.721C134.935 116.181 134.273 117.697 133.036 118.908C131.799 120.118 128.497 119.274 125.405 117.932C122.313 116.599 119.63 120.362 116.633 119.997C113.646 119.631 110.963 118.176 109.003 118.908C107.043 119.639 105.911 118.908 103.533 116.599C101.163 114.291 98.7853 117.453 96.6251 116.599C94.4561 115.746 95.2836 113.681 92.9143 112.592C90.545 111.504 88.167 111.094 88.167 109.735C88.167 106.66 92.8708 105.894 92.8708 105.894L143.367 106.512Z" fill="#E06738"/>
<path d="M144.011 103.002C144.011 112.444 132.469 114.509 118.227 114.509C103.985 114.509 92.4438 112.453 92.4438 103.002C92.4438 93.551 103.985 85.8943 118.227 85.8943C132.469 85.8943 144.011 93.551 144.011 103.002Z" fill="#EDB82C"/>
<path d="M135.701 73.2188H99.6476C98.6546 73.2188 97.8445 72.4087 97.8445 71.4157C97.8445 70.4227 98.6546 69.6126 99.6476 69.6126H135.701C136.694 69.6126 137.504 70.4227 137.504 71.4157C137.504 72.4087 136.694 73.2188 135.701 73.2188Z" fill="#0E7F3D"/>
<path d="M141.084 140.449H94.2558C93.2628 140.449 92.4527 139.639 92.4527 138.646C92.4527 137.653 93.2628 136.843 94.2558 136.843H141.093C142.086 136.843 142.896 137.653 142.896 138.646C142.896 139.639 142.086 140.449 141.084 140.449Z" fill="#0E7F3D"/>
<path d="M132.409 146.939H102.932C101.939 146.939 101.128 146.128 101.128 145.135C101.128 144.142 101.939 143.332 102.932 143.332H132.409C133.402 143.332 134.212 144.142 134.212 145.135C134.212 146.128 133.41 146.939 132.409 146.939Z" fill="#0E7F3D"/>
<path d="M96.0938 182.043H85.3796C84.1601 182.043 83.1671 181.05 83.1671 179.83V169.116C83.1671 167.897 84.1601 166.904 85.3796 166.904H96.0938C97.3133 166.904 98.3063 167.897 98.3063 169.116V179.83C98.3063 181.05 97.3133 182.043 96.0938 182.043Z" fill="#0E7F3D"/>
<path d="M135.832 170.998H103.942C103.28 170.998 102.749 170.466 102.749 169.804C102.749 169.142 103.28 168.611 103.942 168.611H135.832C136.494 168.611 137.025 169.142 137.025 169.804C137.025 170.466 136.494 170.998 135.832 170.998Z" fill="#32B768"/>
<path d="M135.832 175.745H103.942C103.28 175.745 102.749 175.213 102.749 174.551C102.749 173.889 103.28 173.358 103.942 173.358H135.832C136.494 173.358 137.025 173.889 137.025 174.551C137.025 175.205 136.494 175.745 135.832 175.745Z" fill="#32B768"/>
<path d="M131.18 180.335H103.942C103.28 180.335 102.749 179.804 102.749 179.142C102.749 178.48 103.28 177.949 103.942 177.949H131.18C131.843 177.949 132.374 178.48 132.374 179.142C132.383 179.795 131.843 180.335 131.18 180.335Z" fill="#32B768"/>
<path d="M96.0938 215.396H85.3796C84.1601 215.396 83.1671 214.403 83.1671 213.183V202.469C83.1671 201.25 84.1601 200.257 85.3796 200.257H96.0938C97.3133 200.257 98.3063 201.25 98.3063 202.469V213.183C98.3063 214.403 97.3133 215.396 96.0938 215.396Z" fill="#0E7F3D"/>
<path d="M135.832 204.368H103.942C103.28 204.368 102.749 203.837 102.749 203.175C102.749 202.513 103.28 201.981 103.942 201.981H135.832C136.494 201.981 137.025 202.513 137.025 203.175C137.025 203.837 136.494 204.368 135.832 204.368Z" fill="#32B768"/>
<path d="M135.832 209.115H103.942C103.28 209.115 102.749 208.584 102.749 207.922C102.749 207.26 103.28 206.729 103.942 206.729H135.832C136.494 206.729 137.025 207.26 137.025 207.922C137.025 208.584 136.494 209.115 135.832 209.115Z" fill="#32B768"/>
<path d="M131.18 213.671H103.942C103.28 213.671 102.749 213.14 102.749 212.478C102.749 211.816 103.28 211.284 103.942 211.284H131.18C131.843 211.284 132.374 211.816 132.374 212.478C132.383 213.131 131.843 213.671 131.18 213.671Z" fill="#32B768"/>
</g>
</svg>
